<?xml version="1.0" encoding="UTF-8" standalone="no"?>
<svg
   height="32"
   viewBox="0 0 16 16"
   width="32"
   fill="#ffffff"
   version="1.1"
   id="svg6"
   sodipodi:docname="toggle_on.svg"
   inkscape:version="1.1 (c68e22c387, 2021-05-23)"
   xmlns:inkscape="http://www.inkscape.org/namespaces/inkscape"
   xmlns:sodipodi="http://sodipodi.sourceforge.net/DTD/sodipodi-0.dtd"
   xmlns="http://www.w3.org/2000/svg"
   xmlns:svg="http://www.w3.org/2000/svg">
  <defs
     id="defs10" />
  <sodipodi:namedview
     id="namedview8"
     pagecolor="#505050"
     bordercolor="#eeeeee"
     borderopacity="1"
     inkscape:pageshadow="0"
     inkscape:pageopacity="0"
     inkscape:pagecheckerboard="0"
     showgrid="false"
     inkscape:zoom="14.958333"
     inkscape:cx="7.2200557"
     inkscape:cy="16.412256"
     inkscape:window-width="1920"
     inkscape:window-height="991"
     inkscape:window-x="-9"
     inkscape:window-y="-9"
     inkscape:window-maximized="1"
     inkscape:current-layer="svg6" />
  <path
     d="M 0,0 H 24 V 24 H 0 Z"
     fill="none"
     id="path2" />
  <path
     d="M 11.680381,4.10125 H 4.3196185 c -2.0315706,0 -3.68038161,1.74664 -3.68038161,3.8987501 0,2.1521099 1.64881101,3.8987499 3.68038161,3.8987499 h 7.3607625 c 2.031571,0 3.680382,-1.74664 3.680382,-3.8987499 0,-2.1521101 -1.648811,-3.8987501 -3.680382,-3.8987501 z m 0,6.238 c -1.221886,0 -2.2082282,-1.0448659 -2.2082282,-2.3392499 0,-1.2943847 0.9863422,-2.3392501 2.2082282,-2.3392501 1.221887,0 2.208229,1.0448654 2.208229,2.3392501 0,1.294384 -0.986342,2.3392499 -2.208229,2.3392499 z"
     id="path4"
     style="stroke-width:0.757598" />
</svg>
