<?xml version="1.0" encoding="UTF-8" standalone="no"?>
<svg
   height="32"
   viewBox="0 0 16 16"
   width="32"
   fill="#ffffff"
   version="1.1"
   id="svg6"
   sodipodi:docname="toggle_off_disabled.svg"
   inkscape:version="1.1 (c68e22c387, 2021-05-23)"
   xmlns:inkscape="http://www.inkscape.org/namespaces/inkscape"
   xmlns:sodipodi="http://sodipodi.sourceforge.net/DTD/sodipodi-0.dtd"
   xmlns="http://www.w3.org/2000/svg"
   xmlns:svg="http://www.w3.org/2000/svg">
  <defs
     id="defs10" />
  <sodipodi:namedview
     id="namedview8"
     pagecolor="#505050"
     bordercolor="#eeeeee"
     borderopacity="1"
     inkscape:pageshadow="0"
     inkscape:pageopacity="0"
     inkscape:pagecheckerboard="0"
     showgrid="false"
     inkscape:zoom="10.577139"
     inkscape:cx="10.494332"
     inkscape:cy="-7.2325798"
     inkscape:window-width="1920"
     inkscape:window-height="991"
     inkscape:window-x="-9"
     inkscape:window-y="-9"
     inkscape:window-maximized="1"
     inkscape:current-layer="svg6" />
  <path
     d="M 0,0 H 24 V 24 H 0 Z"
     fill="none"
     id="path2" />
  <path
     d="M 11.248959,4.10125 H 4.7510415 c -2.1508104,0 -3.89875,1.7479396 -3.89875,3.89875 0,2.15081 1.7479396,3.89875 3.89875,3.89875 h 6.4979175 c 2.15081,0 3.89875,-1.74794 3.89875,-3.89875 0,-2.1508104 -1.74794,-3.89875 -3.89875,-3.89875 z m 0,6.497917 H 4.7510415 C 3.3150019,10.599167 2.1518748,9.43604 2.1518748,8 c 0,-1.4360396 1.1631271,-2.5991667 2.5991667,-2.5991667 h 6.4979175 c 1.436039,0 2.599166,1.1631271 2.599166,2.5991667 0,1.43604 -1.163127,2.599167 -2.599166,2.599167 z M 4.7510415,6.050625 c -1.0786542,0 -1.949375,0.8707208 -1.949375,1.949375 0,1.078654 0.8707208,1.949375 1.949375,1.949375 1.0786542,0 1.949375,-0.870721 1.949375,-1.949375 0,-1.0786542 -0.8707208,-1.949375 -1.949375,-1.949375 z"
     id="path4"
     style="fill:#000000;fill-opacity:1;stroke-width:0.649792" />
</svg>
